<svg width="997" height="215" viewBox="0 0 997 215" fill="none" xmlns="http://www.w3.org/2000/svg">
<g clip-path="url(#clip0_187_249)">
<path d="M281.107 45.1405C281.107 42.7012 282.291 41.4815 284.659 41.4815H299.473C301.841 41.4815 303.026 42.6656 303.026 45.034C303.026 55.3836 303.073 65.7333 303.168 76.0829C303.262 86.4326 303.31 96.7822 303.31 107.132C303.31 112.745 303.286 118.405 303.239 124.113C303.215 129.797 303.203 135.469 303.203 141.129C303.203 141.84 303.547 142.195 304.233 142.195H351.873C354.17 142.195 355.354 143.344 355.425 145.641L355.674 159.425C355.792 161.864 354.608 163.084 352.121 163.084H284.553C282.184 163.084 281 161.864 281 159.425C281 156.251 281.047 153.09 281.142 149.94C281.237 146.79 281.308 143.628 281.355 140.454C281.521 127.144 281.604 113.87 281.604 100.631C281.604 91.3232 281.521 82.063 281.355 72.8501C281.189 63.6136 281.107 54.3771 281.107 45.1405ZM369.99 54.8389C369.99 51.6653 371.175 48.9299 373.543 46.6326C375.911 44.359 378.682 43.2222 381.856 43.2222C385.1 43.2222 387.954 44.3945 390.417 46.7392C392.88 49.0838 394.112 51.9022 394.112 55.1942C394.112 58.3677 392.94 61.1268 390.595 63.4715C388.25 65.8162 385.456 66.9885 382.211 66.9885C378.919 66.9885 376.053 65.7925 373.614 63.4005C371.198 60.9848 369.99 58.1309 369.99 54.8389ZM371.269 107.132V87.9838C371.269 85.6155 372.465 84.4313 374.857 84.4313H388.215C390.583 84.4313 391.767 85.6155 391.767 87.9838C391.767 99.8966 391.791 111.821 391.838 123.758C391.886 135.694 391.909 147.619 391.909 159.531C391.909 161.9 390.725 163.084 388.357 163.084H374.68C372.311 163.084 371.127 161.9 371.127 159.531C371.127 150.792 371.151 142.065 371.198 133.349C371.246 124.61 371.269 115.871 371.269 107.132ZM413.509 84.4313H425.232C427.364 84.4313 428.548 85.4734 428.785 87.5575C428.95 88.6943 429.092 89.843 429.211 91.0035C429.329 92.164 429.448 93.3245 429.566 94.4849C429.566 94.6034 429.625 94.9349 429.744 95.4796C429.862 96.0244 430.063 96.2967 430.348 96.2967C430.632 96.2967 430.904 96.1191 431.165 95.7638C431.425 95.4323 431.615 95.1718 431.733 94.9823C435.191 90.5535 439.407 87.3444 444.38 85.355C449.354 83.3893 454.588 82.4064 460.082 82.4064C464.606 82.4064 468.762 83.3537 472.551 85.2484C476.317 87.1194 479.36 89.7719 481.681 93.206C484.002 96.6638 485.163 100.761 485.163 105.498C485.163 114.45 485.258 123.438 485.447 132.461C485.66 141.485 485.767 150.473 485.767 159.425C485.767 161.864 484.583 163.084 482.214 163.084H468.573C466.394 163.084 465.21 161.9 465.02 159.531C464.854 157.045 464.795 154.546 464.843 152.036C464.914 149.525 464.914 147.027 464.843 144.54C464.795 139.211 464.771 133.918 464.771 128.66C464.771 123.402 464.771 118.133 464.771 112.851C464.771 108.754 463.587 105.675 461.219 103.615C458.851 101.578 455.701 100.56 451.769 100.56C446.843 100.56 442.805 102.064 439.655 105.071C436.505 108.079 434.161 111.774 432.621 116.155C431.105 120.56 430.348 124.871 430.348 129.086C430.348 134.178 430.312 139.247 430.241 144.291C430.194 149.359 430.134 154.44 430.063 159.531C430.063 161.9 428.879 163.084 426.511 163.084H412.905C410.536 163.084 409.352 161.864 409.352 159.425C409.352 156.204 409.4 152.983 409.494 149.762C409.565 146.565 409.636 143.368 409.708 140.17C409.873 126.647 409.956 113.124 409.956 99.6006V87.9838C409.956 85.6155 411.14 84.4313 413.509 84.4313ZM538.131 193.529C525.484 193.529 514.933 189.017 506.478 179.994C506.194 179.639 505.933 179.295 505.696 178.964C505.46 178.608 505.341 178.206 505.341 177.756C505.341 177.164 505.791 176.228 506.691 174.949C507.591 173.694 508.574 172.415 509.64 171.113C510.705 169.81 511.44 168.922 511.842 168.448C512.269 168.046 512.683 167.69 513.086 167.382C513.488 167.051 513.974 166.885 514.542 166.885C515.016 166.885 515.442 166.98 515.821 167.169C516.176 167.335 516.532 167.536 516.887 167.773C519.942 169.573 523.021 170.947 526.123 171.894C529.226 172.842 532.565 173.315 536.141 173.315C539.386 173.315 542.619 172.877 545.84 172.001C549.084 171.148 551.808 169.632 554.011 167.454C556.213 165.298 557.314 162.279 557.314 158.395C557.314 158.11 557.326 157.388 557.35 156.228C557.374 155.067 557.22 154.487 556.888 154.487C556.651 154.487 556.426 154.605 556.213 154.842C556.024 155.079 555.87 155.257 555.751 155.375C549.783 161.556 542.465 164.647 533.797 164.647C526.621 164.647 520.439 162.741 515.253 158.928C510.042 155.114 506.04 150.188 503.245 144.149C500.427 138.086 499.018 131.739 499.018 125.108V123.367C499.018 118.559 499.823 113.763 501.433 108.979C503.068 104.171 505.4 99.7427 508.432 95.6928C511.463 91.6429 515.111 88.4101 519.374 85.9944C523.613 83.555 528.338 82.3354 533.548 82.3354C537.645 82.3354 541.6 82.8801 545.413 83.9695C549.227 85.0826 552.732 86.9655 555.929 89.618C556.26 89.9733 556.628 90.1509 557.03 90.1509C557.622 90.1509 557.942 89.6654 557.989 88.6943C558.06 87.747 558.262 86.7997 558.593 85.8523C558.949 84.905 559.789 84.4313 561.116 84.4313H574.047C576.415 84.4313 577.599 85.6155 577.599 87.9838C577.599 90.8022 577.587 93.656 577.564 96.5454C577.54 99.4585 577.528 102.36 577.528 105.249C577.528 113.965 577.623 122.692 577.812 131.431C578.026 140.17 578.132 148.933 578.132 157.72C578.132 164.99 576.237 171.314 572.448 176.69C568.659 182.066 563.733 186.223 557.67 189.159C551.583 192.072 545.07 193.529 538.131 193.529ZM539.516 146.245C543.921 146.245 547.592 144.86 550.529 142.089C553.49 139.318 555.692 135.99 557.137 132.106V113.988C557.137 113.751 556.935 113.159 556.533 112.212C556.13 111.265 555.87 110.708 555.751 110.542C554.022 107.108 551.654 104.408 548.646 102.443C545.638 100.477 542.228 99.494 538.415 99.494C534.176 99.494 530.671 100.583 527.9 102.762C525.129 104.941 523.068 107.736 521.718 111.146C520.345 114.557 519.658 118.168 519.658 121.981C519.658 125.723 520.439 129.477 522.002 133.243C523.566 137.009 525.827 140.123 528.788 142.586C531.724 145.025 535.301 146.245 539.516 146.245ZM591.383 124.148C591.383 116.096 593.1 108.92 596.534 102.62C599.968 96.3204 604.788 91.3351 610.993 87.6641C617.174 83.9932 624.315 82.1577 632.414 82.1577C640.396 82.1577 647.359 83.9695 653.303 87.5931C659.271 91.1929 663.913 96.1191 667.229 102.372C670.545 108.624 672.203 115.646 672.203 123.438C672.203 131.49 670.557 138.619 667.265 144.824C663.973 151.053 659.331 155.92 653.339 159.425C647.371 162.954 640.277 164.718 632.059 164.718C623.912 164.718 616.783 163.037 610.673 159.674C604.586 156.287 599.85 151.55 596.463 145.464C593.076 139.401 591.383 132.296 591.383 124.148ZM631.988 99.6716C627.583 99.6716 623.9 100.844 620.94 103.189C618.003 105.533 615.789 108.529 614.297 112.176C612.781 115.824 612.023 119.637 612.023 123.616C612.023 127.381 612.816 130.993 614.403 134.451C615.99 137.932 618.264 140.774 621.224 142.977C624.161 145.156 627.654 146.245 631.704 146.245C636.109 146.245 639.768 145.132 642.681 142.906C645.594 140.679 647.797 137.802 649.289 134.273C650.757 130.768 651.491 127.014 651.491 123.012C651.491 119.128 650.757 115.409 649.289 111.857C647.797 108.304 645.606 105.391 642.717 103.118C639.827 100.82 636.251 99.6716 631.988 99.6716ZM682.185 124.148C682.185 116.096 683.902 108.92 687.336 102.62C690.77 96.3204 695.59 91.3351 701.795 87.6641C707.976 83.9932 715.117 82.1577 723.217 82.1577C731.198 82.1577 738.161 83.9695 744.105 87.5931C750.074 91.1929 754.716 96.1191 758.031 102.372C761.347 108.624 763.005 115.646 763.005 123.438C763.005 131.49 761.359 138.619 758.067 144.824C754.775 151.053 750.133 155.92 744.141 159.425C738.173 162.954 731.08 164.718 722.861 164.718C714.714 164.718 707.586 163.037 701.475 159.674C695.389 156.287 690.652 151.55 687.265 145.464C683.879 139.401 682.185 132.296 682.185 124.148ZM722.755 99.6716C718.373 99.6716 714.703 100.844 711.742 103.189C708.805 105.533 706.579 108.529 705.063 112.176C703.571 115.824 702.825 119.637 702.825 123.616C702.825 127.381 703.619 130.993 705.205 134.451C706.792 137.932 709.066 140.774 712.026 142.977C714.963 145.156 718.456 146.245 722.506 146.245C726.911 146.245 730.57 145.132 733.483 142.906C736.397 140.679 738.599 137.802 740.091 134.273C741.56 130.768 742.294 127.014 742.294 123.012C742.294 119.128 741.56 115.409 740.091 111.857C738.599 108.304 736.408 105.391 733.519 103.118C730.63 100.82 727.042 99.6716 722.755 99.6716ZM809.223 164.718C801.36 164.718 794.741 162.871 789.364 159.176C783.988 155.482 779.915 150.544 777.144 144.362C774.373 138.157 772.987 131.384 772.987 124.042C772.987 116.061 774.479 108.944 777.464 102.691C780.424 96.4151 784.77 91.4535 790.501 87.8062C796.233 84.159 803.255 82.3354 811.568 82.3354C820.757 82.3354 828.762 84.9997 835.583 90.3285C836.104 90.7311 836.518 90.9324 836.826 90.9324C837.158 90.9324 837.359 90.7311 837.43 90.3285C837.477 89.9259 837.501 89.6298 837.501 89.4404C837.501 84.0169 837.513 78.6171 837.537 73.2409C837.584 67.8648 837.631 62.4531 837.679 57.0059C837.75 54.4718 837.75 51.8903 837.679 49.2615C837.631 46.6326 837.69 44.0748 837.856 41.588C838.022 39.196 839.206 38 841.409 38H854.944C857.312 38 858.496 39.2197 858.496 41.6591C858.496 44.8327 858.449 47.9944 858.354 51.1443C858.283 54.2942 858.212 57.4678 858.141 60.665C857.975 73.9041 857.892 87.2023 857.892 100.56C857.892 113.846 857.975 127.144 858.141 140.454C858.212 143.628 858.283 146.79 858.354 149.94C858.449 153.09 858.496 156.251 858.496 159.425C858.496 161.864 857.312 163.084 854.944 163.084H841.231C839.1 163.084 837.987 162.279 837.892 160.668C837.821 159.034 837.75 157.471 837.679 155.979C837.679 155.789 837.655 155.517 837.608 155.162C837.537 154.783 837.359 154.593 837.075 154.593C836.791 154.593 836.388 154.795 835.867 155.197C831.983 158.253 827.815 160.609 823.362 162.267C818.91 163.901 814.197 164.718 809.223 164.718ZM815.582 145.57C820.65 145.57 825.126 144.41 829.011 142.089C832.871 139.791 835.701 136.18 837.501 131.253C837.454 129.24 837.43 127.251 837.43 125.285C837.43 123.32 837.43 121.354 837.43 119.388C837.43 118.441 837.454 117.422 837.501 116.333C837.572 115.243 837.548 114.261 837.43 113.384C837.359 112.745 837.039 111.904 836.471 110.862C835.879 109.82 835.441 109.038 835.156 108.517C833.025 105.296 830.183 102.881 826.63 101.27C823.078 99.6835 819.395 98.8901 815.582 98.8901C811.177 98.8901 807.34 99.9913 804.072 102.194C800.804 104.396 798.293 107.286 796.541 110.862C794.764 114.462 793.876 118.37 793.876 122.585C793.876 126.564 794.812 130.306 796.683 133.811C798.577 137.316 801.171 140.147 804.463 142.302C807.755 144.481 811.461 145.57 815.582 145.57ZM874.696 54.8389C874.696 51.6653 875.88 48.9299 878.248 46.6326C880.617 44.359 883.399 43.2222 886.597 43.2222C889.818 43.2222 892.66 44.3945 895.123 46.7392C897.586 49.0838 898.817 51.9022 898.817 55.1942C898.817 58.3677 897.645 61.1268 895.3 63.4715C892.956 65.8162 890.173 66.9885 886.952 66.9885C883.636 66.9885 880.771 65.7925 878.355 63.4005C875.916 60.9848 874.696 58.1309 874.696 54.8389ZM876.01 107.132V87.9838C876.01 85.6155 877.194 84.4313 879.563 84.4313H892.92C895.289 84.4313 896.473 85.6155 896.473 87.9838C896.473 99.8966 896.508 111.821 896.579 123.758C896.627 135.694 896.65 147.619 896.65 159.531C896.65 161.9 895.466 163.084 893.098 163.084H879.385C877.017 163.084 875.833 161.9 875.833 159.531C875.833 150.792 875.856 142.065 875.904 133.349C875.975 124.61 876.01 115.871 876.01 107.132ZM945.107 164.718C937.599 164.718 931.299 162.93 926.207 159.354C921.115 155.778 917.29 151.017 914.733 145.073C912.151 139.152 910.86 132.722 910.86 125.783V124.397C910.979 117.126 912.495 110.282 915.408 103.864C918.344 97.4454 922.584 92.2469 928.126 88.268C933.668 84.3129 940.37 82.3354 948.233 82.3354C953.088 82.3354 957.611 83.2472 961.803 85.0708C965.995 86.8944 969.915 89.3693 973.562 92.4955C973.965 92.8982 974.32 93.0995 974.628 93.0995C975.315 93.0995 975.646 92.3771 975.623 90.9324C975.575 89.4877 975.777 88.0431 976.227 86.5984C976.653 85.1537 977.79 84.4313 979.637 84.4313H991.858C994.226 84.4313 995.41 85.6155 995.41 87.9838C995.41 90.4706 995.398 92.9574 995.375 95.4441C995.351 97.9309 995.339 100.418 995.339 102.904C995.339 109.252 995.386 115.634 995.481 122.052C995.552 128.471 995.623 134.865 995.694 141.236C995.742 144.244 995.813 147.263 995.908 150.295C996.002 153.326 996.05 156.37 996.05 159.425C996.05 161.864 994.854 163.084 992.462 163.084H978.855C977.292 163.084 976.286 162.575 975.836 161.556C975.362 160.562 975.161 159.366 975.232 157.968C975.279 156.571 975.279 155.328 975.232 154.238C975.232 154.072 975.196 153.788 975.125 153.386C975.078 152.959 974.912 152.746 974.628 152.746C974.391 152.746 974.166 152.841 973.953 153.03C973.764 153.196 973.574 153.338 973.385 153.457C969.335 156.867 964.977 159.602 960.311 161.663C955.622 163.7 950.554 164.718 945.107 164.718ZM953.952 146.245C958.073 146.245 961.886 145.392 965.391 143.687C968.873 141.982 971.597 139.282 973.562 135.588C973.681 135.351 973.953 134.759 974.379 133.811C974.829 132.864 975.054 132.272 975.054 132.035C975.054 130.022 975.042 127.997 975.019 125.96C974.971 123.947 974.948 121.958 974.948 119.992C974.948 119.068 974.983 118.038 975.054 116.901C975.102 115.764 975.066 114.77 974.948 113.917C974.9 113.515 974.687 112.899 974.308 112.07C973.929 111.265 973.657 110.696 973.491 110.365C971.454 106.717 968.589 103.994 964.894 102.194C961.199 100.394 957.327 99.494 953.277 99.494C948.991 99.494 945.237 100.572 942.016 102.727C938.771 104.858 936.237 107.677 934.414 111.182C932.59 114.687 931.678 118.512 931.678 122.656C931.678 126.825 932.637 130.697 934.556 134.273C936.45 137.873 939.091 140.774 942.478 142.977C945.864 145.156 949.689 146.245 953.952 146.245Z" fill="black"/>
<path d="M117.664 57.3176V102.694H72.5266C73.0043 94.8129 74.4372 86.6929 76.5866 78.5729C78.7361 70.6917 81.3631 63.527 83.9902 57.3176H117.664ZM72.2878 112.247C72.5266 128.009 75.8702 143.055 82.5572 157.623H117.664V112.247H72.2878ZM127.217 112.247V157.623H160.891C163.757 151.414 166.145 144.249 168.295 136.368C170.444 128.248 171.638 120.128 172.355 112.247H127.217ZM162.324 57.3176H127.217V102.694H172.594C172.355 86.9317 169.011 71.8858 162.324 57.3176ZM229.911 107.232C229.911 166.46 181.669 214.463 122.441 214.463C104.29 214.463 86.1396 209.687 70.3772 201.089L22.1349 214.702C21.6573 214.941 21.4184 214.941 20.9408 214.941C19.7467 214.941 18.5526 214.463 17.5973 213.508L17.3584 213.269C16.1643 212.075 15.6867 210.165 16.1643 208.493L29.5384 161.206C19.9855 144.966 14.9702 126.338 14.9702 107.232C14.9702 48.2423 63.2125 0 122.441 0C181.669 0 229.911 48.2423 229.911 107.232ZM208.417 107.471C208.417 104.843 206.268 102.694 203.641 102.694H181.908C181.669 88.3646 179.042 73.0799 172.594 57.3176H184.535C187.162 57.3176 189.311 55.1682 189.311 52.5411C189.311 49.9141 187.162 47.7647 184.535 47.7647H168.295C164.235 39.6447 158.981 31.5247 152.532 23.4047C150.861 21.2553 147.756 21.0165 145.845 22.6882C143.696 24.36 143.457 27.4647 145.129 29.3753C149.905 35.3459 154.204 41.5553 157.548 48.0035H127.217V26.5094C127.217 23.8823 125.068 21.7329 122.441 21.7329C119.814 21.7329 117.664 23.8823 117.664 26.5094V48.0035H88.5278C94.4984 36.54 99.9913 29.6141 99.9913 29.3753C101.663 27.2259 101.185 24.36 99.2749 22.6882C97.1255 21.0165 94.2596 21.4941 92.5878 23.4047C92.349 23.6435 85.4231 32.7188 78.0196 47.7647H60.3467C57.7196 47.7647 55.5702 49.9141 55.5702 52.5411C55.5702 55.1682 57.7196 57.3176 60.3467 57.3176H73.7208C68.7055 69.9752 64.1678 85.4988 63.2125 102.694H41.2408C38.6137 102.694 36.4643 104.843 36.4643 107.471C36.4643 110.098 38.6137 112.247 41.2408 112.247H62.9737C63.2125 126.576 65.8396 141.861 72.2878 157.623H60.3467C57.7196 157.623 55.5702 159.773 55.5702 162.4C55.5702 165.027 57.7196 167.176 60.3467 167.176H76.5866C80.6466 175.296 85.9008 183.416 92.349 191.536C93.3043 192.73 94.7372 193.447 96.1702 193.447C97.1255 193.447 98.3196 193.208 99.036 192.492C101.185 190.82 101.424 187.715 99.7525 185.805C94.976 179.834 90.6772 173.625 87.3337 167.176H117.664V188.67C117.664 191.298 119.814 193.447 122.441 193.447C125.068 193.447 127.217 191.298 127.217 188.67V167.176H156.354C150.383 178.64 144.89 185.566 144.89 185.805C143.218 187.954 143.696 190.82 145.607 192.492C146.562 193.208 147.517 193.447 148.472 193.447C149.905 193.447 151.338 192.73 152.294 191.536C152.532 191.298 159.458 182.222 166.862 167.176H184.535C187.162 167.176 189.311 165.027 189.311 162.4C189.311 159.773 187.162 157.623 184.535 157.623H171.161C176.176 144.966 180.714 129.442 181.669 112.247H203.641C206.268 112.247 208.417 110.098 208.417 107.471Z" fill="black"/>
</g>
<defs>
<clipPath id="clip0_187_249">
<rect width="995.78" height="214.941" fill="white" transform="translate(0.504395)"/>
</clipPath>
</defs>
</svg>
